<svg width="25" height="25" viewBox="0 0 25 25" fill="none" xmlns="http://www.w3.org/2000/svg">
<g clip-path="url(#clip0_2914_7372)">
<path d="M21.67 8.83105C20.22 8.83105 19.41 10.2711 19.74 11.3411L16.19 14.9011C15.89 14.8111 15.45 14.8111 15.15 14.9011L12.6 12.3511C12.94 11.2811 12.13 9.83105 10.67 9.83105C9.21998 9.83105 8.39998 11.2711 8.73998 12.3511L4.17998 16.9011C3.10998 16.5711 1.66998 17.3811 1.66998 18.8311C1.66998 19.9311 2.56998 20.8311 3.66998 20.8311C5.11998 20.8311 5.92998 19.3911 5.59998 18.3211L10.15 13.7611C10.45 13.8511 10.89 13.8511 11.19 13.7611L13.74 16.3111C13.4 17.3811 14.21 18.8311 15.67 18.8311C17.12 18.8311 17.94 17.3911 17.6 16.3111L21.16 12.7611C22.23 13.0911 23.67 12.2811 23.67 10.8311C23.67 9.73105 22.77 8.83105 21.67 8.83105Z" fill="#6260FF"/>
<path d="M15.67 9.83105L16.61 7.76105L18.67 6.83105L16.61 5.90105L15.67 3.83105L14.75 5.90105L12.67 6.83105L14.75 7.76105L15.67 9.83105Z" fill="#6260FF"/>
<path d="M4.16998 11.8311L4.66998 9.83105L6.66998 9.33105L4.66998 8.83105L4.16998 6.83105L3.66998 8.83105L1.66998 9.33105L3.66998 9.83105L4.16998 11.8311Z" fill="#6260FF"/>
</g>
<defs>
<clipPath id="clip0_2914_7372">
<rect width="24" height="24" fill="white" transform="translate(0.669983 0.831055)"/>
</clipPath>
</defs>
</svg>
