<svg xmlns="http://www.w3.org/2000/svg" width="13" height="12" viewBox="0 0 13 12" fill="none">
<path d="M12.2384 1.58618V4.30631C12.2384 4.48667 12.1667 4.65964 12.0392 4.78717C11.9117 4.9147 11.7387 4.98635 11.5583 4.98635H8.8382C8.65784 4.98635 8.48487 4.9147 8.35734 4.78717C8.22981 4.65964 8.15816 4.48667 8.15816 4.30631C8.15816 4.12596 8.22981 3.95299 8.35734 3.82546C8.48487 3.69793 8.65784 3.62628 8.8382 3.62628H9.80724L8.73053 2.64137C8.72316 2.63457 8.71579 2.62776 8.70899 2.6204C8.20974 2.12146 7.59552 1.75286 6.92037 1.54704C6.24522 1.34123 5.52983 1.3045 4.83715 1.44009C4.14447 1.57568 3.49573 1.87943 2.94801 2.32462C2.40029 2.7698 1.97038 3.34278 1.6961 3.99314C1.42182 4.64349 1.31159 5.35129 1.37509 6.05426C1.4386 6.75722 1.6739 7.4338 2.06029 8.02447C2.44668 8.61514 2.97232 9.10179 3.59096 9.44161C4.2096 9.78143 4.90228 9.964 5.60804 9.97325H5.66471C6.76405 9.9759 7.82226 9.55546 8.62002 8.79906C8.75115 8.67514 8.92614 8.60839 9.10649 8.61349C9.28684 8.61859 9.45778 8.69513 9.5817 8.82626C9.70562 8.9574 9.77237 9.13239 9.76727 9.31274C9.76217 9.49309 9.68563 9.66402 9.5545 9.78794C8.50435 10.7833 7.11161 11.3366 5.66471 11.3333H5.58707C4.65942 11.3202 3.74917 11.0796 2.93624 10.6326C2.12331 10.1855 1.43256 9.54573 0.924663 8.76936C0.416762 7.993 0.107235 7.10381 0.0232625 6.17987C-0.0607101 5.25594 0.0834396 4.32552 0.443054 3.4703C0.802669 2.61509 1.36675 1.86125 2.08576 1.27497C2.80478 0.688693 3.65674 0.287907 4.56683 0.107807C5.47693 -0.0722939 6.41732 -0.0262002 7.30544 0.24204C8.19356 0.510281 9.00224 0.992464 9.66047 1.64625L10.8783 2.76037V1.58618C10.8783 1.40583 10.9499 1.23286 11.0775 1.10533C11.205 0.977794 11.378 0.906148 11.5583 0.906148C11.7387 0.906148 11.9117 0.977794 12.0392 1.10533C12.1667 1.23286 12.2384 1.40583 12.2384 1.58618Z" fill="black"/>
</svg>