<svg width="24" height="25" viewBox="0 0 24 25" fill="none" xmlns="http://www.w3.org/2000/svg">
<path d="M2 3.1106H8C9.06087 3.1106 10.0783 3.54754 10.8284 4.32532C11.5786 5.10309 12 6.15797 12 7.25791V21.7735C12 20.9486 11.6839 20.1574 11.1213 19.5741C10.5587 18.9907 9.79565 18.663 9 18.663H2V3.1106Z" stroke="#FFFBF4" stroke-width="2" stroke-linecap="round" stroke-linejoin="round"/>
<path d="M22 3.1106H16C14.9391 3.1106 13.9217 3.54754 13.1716 4.32532C12.4214 5.10309 12 6.15797 12 7.25791V21.7735C12 20.9486 12.3161 20.1574 12.8787 19.5741C13.4413 18.9907 14.2044 18.663 15 18.663H22V3.1106Z" stroke="#FFFBF4" stroke-width="2" stroke-linecap="round" stroke-linejoin="round"/>
</svg>
