<svg width="25" height="25" viewBox="0 0 25 25" fill="none" xmlns="http://www.w3.org/2000/svg">
<circle cx="12.5" cy="12.5" r="12.5" fill="url(#paint0_linear_4589_12038)"/>
<path d="M17.3411 8.65642C17.1069 8.66435 16.8849 8.76482 16.7225 8.93646C15.0174 10.673 12.9993 12.4366 11.1717 14.2401L8.17983 11.9598C8.08546 11.8856 7.97753 11.8313 7.8623 11.7999C7.74708 11.7685 7.62687 11.7608 7.50866 11.777C7.39046 11.7933 7.27661 11.8333 7.17374 11.8947C7.07088 11.956 6.98105 12.0376 6.90948 12.1346C6.8379 12.2315 6.78602 12.342 6.75684 12.4596C6.72765 12.5771 6.72176 12.6994 6.73949 12.8192C6.75722 12.9391 6.79823 13.0542 6.86013 13.1578C6.92203 13.2615 7.00358 13.3515 7.10005 13.4229L10.6993 16.1661C10.8726 16.2979 11.0869 16.3617 11.3027 16.346C11.5186 16.3302 11.7217 16.2359 11.8747 16.0804C13.7532 14.1673 16.0328 12.2249 17.9935 10.2281C18.124 10.0998 18.2134 9.93446 18.2497 9.75366C18.2861 9.57287 18.2678 9.38512 18.1972 9.2151C18.1266 9.04507 18.0071 8.90071 17.8543 8.801C17.7015 8.70129 17.5226 8.65089 17.3411 8.65642Z" fill="#FFFBF4"/>
<defs>
<linearGradient id="paint0_linear_4589_12038" x1="0.932836" y1="-2.08334" x2="30.0423" y2="1.69692" gradientUnits="userSpaceOnUse">
<stop stop-color="#5250FF"/>
<stop offset="1" stop-color="#A660FF"/>
</linearGradient>
</defs>
</svg>
