<svg width="22" height="22" viewBox="0 0 22 22" fill="none" xmlns="http://www.w3.org/2000/svg">
<g id="copy" opacity="0.5" clip-path="url(#clip0_1157_365072)">
<path id="Vector" d="M18.2261 8.25H10.2069C9.22266 8.25 8.4248 9.07081 8.4248 10.0833V18.3333C8.4248 19.3459 9.22266 20.1667 10.2069 20.1667H18.2261C19.2103 20.1667 20.0081 19.3459 20.0081 18.3333V10.0833C20.0081 9.07081 19.2103 8.25 18.2261 8.25Z" stroke="white" stroke-width="2" stroke-linecap="round" stroke-linejoin="round"/>
<path id="Vector_2" d="M4.86058 13.7507H3.96955C3.49692 13.7507 3.04365 13.5575 2.70945 13.2137C2.37525 12.8699 2.1875 12.4035 2.1875 11.9173V3.66732C2.1875 3.18109 2.37525 2.71477 2.70945 2.37096C3.04365 2.02714 3.49692 1.83398 3.96955 1.83398H11.9888C12.4614 1.83398 12.9147 2.02714 13.2489 2.37096C13.5831 2.71477 13.7708 3.18109 13.7708 3.66732V4.58398" stroke="white" stroke-width="2" stroke-linecap="round" stroke-linejoin="round"/>
</g>
<defs>
<clipPath id="clip0_1157_365072">
<rect width="21.3846" height="22" fill="white" transform="translate(0.405518)"/>
</clipPath>
</defs>
</svg>
