<svg xmlns="http://www.w3.org/2000/svg" width="16" height="16" viewBox="0 0 16 16" fill="none">
<path d="M15.5822 3.86449L12.1367 0.417752C11.8685 0.149608 11.506 0 11.1274 0H4.87492C4.4963 0 4.13263 0.150759 3.86564 0.417752L0.417752 3.86449C0.149608 4.13263 0 4.49514 0 4.87377V11.1262C0 11.5049 0.150759 11.8685 0.417752 12.1355L3.81155 15.5293C4.11307 15.8308 4.52161 16 4.94742 16H11.0526C11.4784 16 11.8869 15.8308 12.1884 15.5293L15.5822 12.1355C15.8504 11.8674 16 11.5049 16 11.1262V4.87377C16 4.49514 15.8492 4.13148 15.5822 3.86449ZM12.6384 12.1505L12.1505 12.6384C9.86262 10.3506 6.13853 10.3506 3.85068 12.6384L3.36273 12.1505C5.65058 9.86147 5.65058 6.13853 3.36273 3.85068L3.85068 3.36273C6.13853 5.65058 9.86262 5.65058 12.1505 3.36273L12.6384 3.85068C10.3506 6.13968 10.3506 9.86262 12.6384 12.1505Z" fill="#6260FF"/>
</svg>