<svg width="26" height="26" viewBox="0 0 26 26" fill="none" xmlns="http://www.w3.org/2000/svg">
<g clip-path="url(#clip0_4246_8670)">
<path d="M21.1035 13.3792C19.4027 8.95916 13.3468 8.72082 14.8093 2.29666C14.9177 1.81999 14.4085 1.45166 13.9968 1.70082C10.0643 4.01916 7.23683 8.66666 9.60933 14.755C9.80433 15.2533 9.21933 15.7192 8.79683 15.3942C6.836 13.91 6.63016 11.7758 6.8035 10.2483C6.8685 9.68499 6.13183 9.41416 5.81766 9.87999C5.081 11.0067 4.3335 12.8267 4.3335 15.5675C4.74516 21.6342 9.86933 23.4975 11.711 23.7358C14.3435 24.0717 17.1927 23.5842 19.2402 21.71C21.4935 19.6192 22.3168 16.2825 21.1035 13.3792ZM11.0502 18.8283C12.6102 18.4492 13.4118 17.3225 13.6285 16.3258C13.986 14.7767 12.5885 13.26 13.531 10.8117C13.8885 12.8375 17.0735 14.105 17.0735 16.315C17.1602 19.0558 14.1918 21.4067 11.0502 18.8283Z" fill="#CE0D98"/>
<path d="M21.1035 13.3792C19.4027 8.95916 13.3468 8.72082 14.8093 2.29666C14.9177 1.81999 14.4085 1.45166 13.9968 1.70082C10.0643 4.01916 7.23683 8.66666 9.60933 14.755C9.80433 15.2533 9.21933 15.7192 8.79683 15.3942C6.836 13.91 6.63016 11.7758 6.8035 10.2483C6.8685 9.68499 6.13183 9.41416 5.81766 9.87999C5.081 11.0067 4.3335 12.8267 4.3335 15.5675C4.74516 21.6342 9.86933 23.4975 11.711 23.7358C14.3435 24.0717 17.1927 23.5842 19.2402 21.71C21.4935 19.6192 22.3168 16.2825 21.1035 13.3792ZM11.0502 18.8283C12.6102 18.4492 13.4118 17.3225 13.6285 16.3258C13.986 14.7767 12.5885 13.26 13.531 10.8117C13.8885 12.8375 17.0735 14.105 17.0735 16.315C17.1602 19.0558 14.1918 21.4067 11.0502 18.8283Z" fill="#CE0D98"/>
</g>
<defs>
<clipPath id="clip0_4246_8670">
<rect width="26" height="26" fill="white"/>
</clipPath>
</defs>
</svg>
