<svg xmlns="http://www.w3.org/2000/svg" width="16" height="16" viewBox="0 0 16 16" fill="none">
  <path fill-rule="evenodd" clip-rule="evenodd" d="M8.00008 14.0001C11.3138 14.0001 14.0001 11.3138 14.0001 8.00008C14.0001 4.68637 11.3138 2.00008 8.00008 2.00008C4.68637 2.00008 2.00008 4.68637 2.00008 8.00008C2.00008 11.3138 4.68637 14.0001 8.00008 14.0001ZM8.00008 15.3334C12.0502 15.3334 15.3334 12.0502 15.3334 8.00008C15.3334 3.94999 12.0502 0.666748 8.00008 0.666748C3.94999 0.666748 0.666748 3.94999 0.666748 8.00008C0.666748 12.0502 3.94999 15.3334 8.00008 15.3334Z" fill="black"/>
  <path d="M8 12V8" stroke="black" stroke-width="1.33333" stroke-linecap="round"/>
  <path d="M8.66659 5.33341C8.66659 5.7016 8.36811 6.00008 7.99992 6.00008C7.63173 6.00008 7.33325 5.7016 7.33325 5.33341C7.33325 4.96522 7.63173 4.66675 7.99992 4.66675C8.36811 4.66675 8.66659 4.96522 8.66659 5.33341Z" fill="black"/>
</svg>