<svg xmlns="http://www.w3.org/2000/svg" width="24" height="24" viewBox="0 0 24 24" fill="none">
<path d="M5 3.33333C5 2.59695 5.69882 2 6.56086 2H17.4341C18.2961 2 18.9949 2.59695 18.9949 3.33333V20.6667C18.9949 21.403 18.2961 22 17.4341 22H6.56086C5.69882 22 5 21.403 5 20.6667V3.33333Z" fill="url(#paint0_linear_1610_298331)"/>
<path d="M6.56611 1.5C5.50472 1.5 4.50525 2.24982 4.50525 3.33333V20.6667C4.50525 21.7502 5.50472 22.5 6.56611 22.5H17.4393C18.5007 22.5 19.5002 21.7502 19.5002 20.6667V3.33333C19.5002 2.24982 18.5007 1.5 17.4393 1.5H6.56611Z" stroke="white"/>
<defs>
<linearGradient id="paint0_linear_1610_298331" x1="20.8482" y1="0.197116" x2="8.28479" y2="23.5987" gradientUnits="userSpaceOnUse">
<stop stop-color="#6260FF"/>
<stop offset="1" stop-color="#17163E"/>
</linearGradient>
</defs>
</svg>