<svg width="277" height="277" viewBox="0 0 277 277" fill="none" xmlns="http://www.w3.org/2000/svg">
<path d="M269.768 66.904L210.116 7.23232C205.474 2.59009 199.198 0 192.643 0H84.397C77.8421 0 71.5462 2.61001 66.9239 7.23232L7.23232 66.904C2.59009 71.5462 0 77.8222 0 84.3771V192.623C0 199.178 2.61001 205.474 7.23232 210.096L65.9875 268.851C71.2075 274.071 78.2804 277 85.6522 277H191.348C198.72 277 205.792 274.071 211.013 268.851L269.768 210.096C274.41 205.454 277 199.178 277 192.623V84.3771C277 77.8222 274.39 71.5263 269.768 66.904ZM218.803 210.355L210.355 218.803C170.747 179.194 106.273 179.194 66.6649 218.803L58.2172 210.355C97.8256 170.727 97.8256 106.273 58.2172 66.6649L66.6649 58.2172C106.273 97.8256 170.747 97.8256 210.355 58.2172L218.803 66.6649C179.194 106.293 179.194 170.747 218.803 210.355Z" fill="#6260FF"/>
</svg>
