<svg width="142" height="32" viewBox="0 0 142 32" fill="none" xmlns="http://www.w3.org/2000/svg">
<g id="Group 2436">
<path id="Logo Vector" d="M31.1645 7.72898L24.2733 0.835503C23.737 0.299216 23.012 0 22.2548 0H9.74984C8.99259 0 8.26527 0.301518 7.73128 0.835503L0.835503 7.72898C0.299216 8.26527 0 8.99029 0 9.74754V22.2525C0 23.0097 0.301518 23.737 0.835503 24.271L7.6231 31.0586C8.22614 31.6617 9.04323 32 9.89484 32H22.1052C22.9568 32 23.7739 31.6617 24.3769 31.0586L31.1645 24.271C31.7008 23.7347 32 23.0097 32 22.2525V9.74754C32 8.99029 31.6985 8.26297 31.1645 7.72898ZM25.2768 24.3009L24.3009 25.2768C19.7252 20.7011 12.2771 20.7011 7.70136 25.2768L6.72545 24.3009C11.3012 19.7229 11.3012 12.2771 6.72545 7.70136L7.70136 6.72545C12.2771 11.3012 19.7252 11.3012 24.3009 6.72545L25.2768 7.70136C20.7011 12.2794 20.7011 19.7252 25.2768 24.3009Z" fill="#6260FF"/>
<g id="Group 2394">
<path id="Vector" d="M40.0457 15.5564V4.59936H42.2677V5.88952H42.6192C42.7965 5.42963 43.0776 5.0932 43.4658 4.87715C43.854 4.66109 44.3338 4.55615 44.9085 4.55615H46.2074V6.6241H44.8198C44.0863 6.6241 43.4842 6.82781 43.0165 7.23523C42.5458 7.64264 42.3135 8.2692 42.3135 9.11181V15.5564H40.0457Z" fill="#6260FF"/>
<path id="Vector_2" d="M49.9059 15.868C49.1296 15.868 48.4357 15.7352 47.8275 15.4667C47.2193 15.2013 46.7333 14.8093 46.3757 14.2877C46.015 13.7691 45.8378 13.1395 45.8378 12.3987C45.8378 11.658 46.0181 11.016 46.3757 10.5222C46.7364 10.0252 47.2254 9.65176 47.8489 9.39867C48.4724 9.14558 49.1815 9.02212 49.9731 9.02212H53.2741V8.31223C53.2741 7.67641 53.0846 7.16405 52.7025 6.77824C52.3205 6.39243 51.7336 6.20107 50.942 6.20107C50.1504 6.20107 49.5697 6.38626 49.1601 6.75663C48.7506 7.12701 48.4785 7.60851 48.3471 8.20111L46.2351 7.51282C46.4124 6.92022 46.6936 6.38317 47.0817 5.90168C47.4699 5.42018 47.9864 5.03129 48.6344 4.73498C49.2793 4.43868 50.0587 4.29053 50.9665 4.29053C52.3755 4.29053 53.4819 4.65473 54.2888 5.38006C55.0957 6.10538 55.4992 7.13627 55.4992 8.46964V12.9821C55.4992 13.4265 55.704 13.6488 56.1166 13.6488H57.0396V15.5593H55.3464C54.8329 15.5593 54.4141 15.4266 54.0932 15.1581C53.7692 14.8926 53.6103 14.5284 53.6103 14.0685V14.0006H53.2802C53.1641 14.2229 52.9868 14.4821 52.7514 14.7784C52.5161 15.0747 52.1707 15.3309 51.7184 15.5439C51.263 15.7599 50.6608 15.8649 49.9151 15.8649L49.9059 15.868ZM50.236 13.979C51.1468 13.979 51.8804 13.7167 52.4366 13.1889C52.9929 12.6642 53.2741 11.9419 53.2741 11.0222V10.7999H50.1046C49.5024 10.7999 49.0195 10.9296 48.6528 11.1888C48.286 11.4481 48.1026 11.8308 48.1026 12.3339C48.1026 12.837 48.2921 13.2383 48.6741 13.5346C49.0562 13.8309 49.5758 13.979 50.236 13.979Z" fill="#6260FF"/>
<path id="Vector_3" d="M61.7435 15.8677C60.848 15.8677 60.0197 15.6454 59.2556 15.201C58.4915 14.7565 57.8802 14.1145 57.4187 13.2781C56.9571 12.4417 56.7249 11.4293 56.7249 10.2441V9.91073C56.7249 8.74095 56.951 7.73166 57.4064 6.88905C57.8618 6.04335 58.4701 5.40136 59.2342 4.95691C59.9983 4.51245 60.8327 4.29022 61.7435 4.29022C62.4465 4.29022 63.0395 4.37973 63.5163 4.55566C63.9931 4.73468 64.3843 4.95999 64.693 5.23469C65.0017 5.50939 65.237 5.79335 65.396 6.08965H65.7475V0H68.0154V15.5559H65.7933V14.0003H65.4418C65.1637 14.4756 64.7419 14.9047 64.1765 15.2905C63.611 15.6763 62.8011 15.8677 61.7435 15.8677ZM62.3823 13.8676C63.3635 13.8676 64.1765 13.5497 64.8153 12.9108C65.4541 12.275 65.7719 11.3645 65.7719 10.1762V9.97554C65.7719 8.80576 65.4571 7.90142 64.8244 7.2656C64.1948 6.62979 63.3787 6.30879 62.3823 6.30879C61.3859 6.30879 60.6096 6.6267 59.9739 7.2656C59.3351 7.90142 59.0172 8.80576 59.0172 9.97554V10.1762C59.0172 11.3614 59.3351 12.2719 59.9739 12.9108C60.6127 13.5466 61.4165 13.8676 62.3823 13.8676Z" fill="#6260FF"/>
<path id="Vector_4" d="M78.1382 20V14.0677H77.7867C77.6247 14.364 77.3894 14.648 77.0838 14.9227C76.7751 15.1974 76.3838 15.4227 75.907 15.6017C75.4302 15.7807 74.8403 15.8671 74.1343 15.8671C73.2235 15.8671 72.389 15.6449 71.6249 15.2005C70.8608 14.756 70.2526 14.114 69.7972 13.2776C69.3418 12.4411 69.1156 11.4288 69.1156 10.2435V9.91021C69.1156 8.725 69.3479 7.71263 69.8094 6.87619C70.2709 6.03975 70.8853 5.39776 71.6463 4.9533C72.4104 4.50885 73.2387 4.28662 74.1343 4.28662C75.1918 4.28662 76.0018 4.47798 76.5672 4.86379C77.1327 5.24961 77.5544 5.6848 77.8326 6.17555H78.1841V4.59836H80.4061V20H78.1382ZM74.77 13.8671C75.7664 13.8671 76.5825 13.5492 77.2121 12.9103C77.8417 12.2745 78.1596 11.3639 78.1596 10.1756V9.97503C78.1596 8.80525 77.8417 7.9009 77.2029 7.26509C76.5642 6.62927 75.7542 6.30827 74.77 6.30827C73.7858 6.30827 72.9973 6.62618 72.3615 7.26509C71.7227 7.9009 71.4049 8.80525 71.4049 9.97503V10.1756C71.4049 11.3609 71.7227 12.2714 72.3615 12.9103C73.0003 13.5461 73.8042 13.8671 74.77 13.8671Z" fill="#6260FF"/>
<path id="Vector_5" d="M86.1918 15.7566C85.3697 15.7566 84.6361 15.5714 83.9912 15.2011C83.3463 14.8307 82.8389 14.306 82.4722 13.6239C82.1054 12.9418 81.922 12.1269 81.922 11.1794V4.60205H84.1899V11.025C84.1899 11.9726 84.4252 12.6732 84.8929 13.1239C85.3636 13.5745 86.0146 13.8029 86.852 13.8029C87.7751 13.8029 88.5209 13.4881 89.0863 12.8584C89.6517 12.2288 89.9329 11.3213 89.9329 10.1361V4.60205H92.2008V15.5591H89.9788V13.914H89.6273C89.4225 14.3585 89.0557 14.7782 88.527 15.1702C87.9982 15.5622 87.2219 15.7597 86.1949 15.7597L86.1918 15.7566Z" fill="#6260FF"/>
<path id="Vector_6" d="M98.8028 15.868C97.7025 15.868 96.7428 15.6334 95.9206 15.1673C95.0984 14.7013 94.4565 14.0408 93.995 13.1889C93.5335 12.337 93.3012 11.3493 93.3012 10.2228V9.95733C93.3012 8.81532 93.5274 7.82147 93.9828 6.9696C94.4382 6.11773 95.0709 5.45722 95.887 4.99116C96.7 4.5251 97.6444 4.29053 98.7142 4.29053C99.7839 4.29053 100.67 4.5251 101.453 4.99116C102.238 5.45722 102.85 6.10538 103.29 6.93565C103.73 7.76592 103.95 8.73507 103.95 9.84621V10.7135H95.6088C95.6394 11.6765 95.9573 12.445 96.5655 13.013C97.1737 13.584 97.9348 13.8679 98.8425 13.8679C99.6922 13.8679 100.334 13.6765 100.768 13.2907C101.202 12.9049 101.535 12.4605 101.771 11.9574L103.641 12.9358C103.436 13.3494 103.14 13.7877 102.749 14.2476C102.361 14.7074 101.85 15.0932 101.22 15.4019C100.591 15.7136 99.7809 15.868 98.7997 15.868H98.8028ZM95.6333 8.9573H101.642C101.584 8.12704 101.291 7.47887 100.762 7.01281C100.233 6.54675 99.5425 6.31218 98.6928 6.31218C97.8431 6.31218 97.1493 6.54675 96.6144 7.01281C96.0795 7.47887 95.7525 8.12704 95.6363 8.9573H95.6333Z" fill="#6260FF"/>
<path id="Vector_7" d="M109.409 15.8678C108.03 15.8678 106.884 15.5561 105.976 14.9357C105.066 14.3122 104.509 13.3739 104.305 12.1146L106.417 11.6023C106.533 12.2103 106.731 12.6918 107.009 13.0467C107.288 13.4017 107.636 13.6548 108.055 13.8029C108.473 13.9511 108.923 14.0252 109.409 14.0252C110.127 14.0252 110.68 13.8832 111.071 13.6023C111.46 13.3214 111.655 12.9572 111.655 12.5128C111.655 12.0683 111.472 11.7412 111.105 11.5344C110.738 11.3276 110.194 11.1578 109.476 11.022L108.727 10.8893C107.994 10.7566 107.327 10.5652 106.725 10.3121C106.123 10.059 105.646 9.71334 105.295 9.26888C104.943 8.82443 104.766 8.25343 104.766 7.55897C104.766 6.5219 105.148 5.71942 105.909 5.14842C106.673 4.57741 107.685 4.29346 108.947 4.29346C110.21 4.29346 111.166 4.57124 111.952 5.12681C112.737 5.68238 113.248 6.43548 113.48 7.38304L111.368 7.98182C111.237 7.31513 110.958 6.84599 110.53 6.57129C110.106 6.29659 109.577 6.16079 108.947 6.16079C108.318 6.16079 107.847 6.27499 107.495 6.50647C107.144 6.73796 106.967 7.05895 106.967 7.47254C106.967 7.917 107.138 8.24417 107.483 8.45096C107.829 8.65776 108.293 8.81517 108.88 8.91702L109.65 9.04974C110.427 9.18246 111.139 9.36765 111.784 9.60531C112.429 9.84297 112.939 10.1825 113.312 10.6269C113.685 11.0714 113.874 11.664 113.874 12.4048C113.874 13.5005 113.471 14.3523 112.664 14.9604C111.857 15.5684 110.772 15.8709 109.406 15.8709L109.409 15.8678Z" fill="#6260FF"/>
<path id="Vector_8" d="M118.63 15.5563C117.97 15.5563 117.444 15.3557 117.056 14.9576C116.668 14.5594 116.472 14.0254 116.472 13.3588V6.53762H113.48V4.60548H116.472V0.981934H118.74V4.60548H121.974V6.53762H118.74V12.9606C118.74 13.4051 118.945 13.6273 119.357 13.6273H121.625V15.5594H118.633L118.63 15.5563Z" fill="#6260FF"/>
<path id="Vector_9" d="M123.762 3.8146V1.41639H122.799V0.937988H125.238V1.41639H124.287V3.8146H123.762ZM125.623 3.8146V0.937988H126.61L127.212 3.33619H127.316L127.906 0.937988H128.894V3.8146H128.38V1.41639H128.264L127.662 3.8146H126.855L126.265 1.41639H126.149V3.8146H125.623Z" fill="#6260FF"/>
</g>
<g id="LEARN ABOUT RADIX">
<path id="Vector_10" d="M139.276 26.6999L141.606 30.2399H139.936L138.406 27.7899L136.866 30.2399H135.246L137.576 26.6899L135.256 23.1499H136.916L138.436 25.5999L139.986 23.1499H141.596L139.276 26.6999Z" fill="#6260FF"/>
<path id="Vector_11" d="M132.949 30.2399V23.1499H134.349V30.2399H132.949Z" fill="#6260FF"/>
<path id="Vector_12" d="M128.124 28.9599C129.284 28.9599 130.254 28.2499 130.254 26.6999C130.254 25.1599 129.294 24.4299 128.134 24.4299H127.024V28.9599H128.124ZM125.644 30.2399V23.1499H128.184C130.204 23.1499 131.684 24.4599 131.684 26.6999C131.684 28.9399 130.194 30.2399 128.174 30.2399H125.644Z" fill="#6260FF"/>
<path id="Vector_13" d="M122.627 28.6199H119.747L119.157 30.2399H117.697L120.417 23.1499H122.017L124.717 30.2399H123.217L122.627 28.6199ZM120.207 27.3599H122.167L121.187 24.6799L120.207 27.3599Z" fill="#6260FF"/>
<path id="Vector_14" d="M114.356 27.5099H113.636V30.2399H112.246V23.1499H115.016C116.396 23.1499 117.276 24.0999 117.276 25.3299C117.276 26.3299 116.696 27.0699 115.766 27.3399L117.286 30.2399H115.746L114.356 27.5099ZM114.756 26.3199C115.466 26.3199 115.866 25.9299 115.866 25.3399C115.866 24.7399 115.466 24.3499 114.756 24.3499H113.636V26.3199H114.756Z" fill="#6260FF"/>
<path id="Vector_15" d="M106.915 24.4599V30.2399H105.525V24.4599H103.285V23.1499H109.155V24.4599H106.915Z" fill="#6260FF"/>
<path id="Vector_16" d="M99.6228 30.3999C98.1128 30.3999 96.9028 29.4699 96.9028 27.7299V23.1499H98.2828V27.6299C98.2828 28.5599 98.7928 29.0499 99.6228 29.0499C100.463 29.0499 100.973 28.5599 100.973 27.6299V23.1499H102.353V27.7299C102.353 29.4699 101.143 30.3999 99.6228 30.3999Z" fill="#6260FF"/>
<path id="Vector_17" d="M89.8674 26.69C89.8674 28.29 90.9874 29.05 92.0774 29.05C93.1774 29.05 94.2974 28.29 94.2974 26.69C94.2974 25.09 93.1774 24.33 92.0774 24.33C90.9874 24.33 89.8674 25.09 89.8674 26.69ZM88.4374 26.7C88.4374 24.41 90.1574 23 92.0774 23C94.0074 23 95.7274 24.41 95.7274 26.7C95.7274 28.98 94.0074 30.39 92.0774 30.39C90.1574 30.39 88.4374 28.98 88.4374 26.7Z" fill="#6260FF"/>
<path id="Vector_18" d="M85.2062 23.1499C86.5862 23.1499 87.3662 23.9699 87.3662 25.0599C87.3662 25.7899 86.9362 26.3799 86.3362 26.5799C87.0162 26.7399 87.5862 27.3899 87.5862 28.2599C87.5862 29.4099 86.7262 30.2399 85.3962 30.2399H82.6562V23.1499H85.2062ZM84.9962 26.0799C85.6362 26.0799 86.0062 25.7399 86.0062 25.1899C86.0062 24.6399 85.6662 24.3099 84.9862 24.3099H84.0162V26.0799H84.9962ZM85.1362 29.0899C85.8162 29.0899 86.2062 28.7399 86.2062 28.1699C86.2062 27.6099 85.8462 27.2199 85.1562 27.2199H84.0162V29.0899H85.1362Z" fill="#6260FF"/>
<path id="Vector_19" d="M79.6392 28.6199H76.7592L76.1692 30.2399H74.7092L77.4292 23.1499H79.0292L81.7292 30.2399H80.2292L79.6392 28.6199ZM77.2192 27.3599H79.1792L78.1992 24.6799L77.2192 27.3599Z" fill="#6260FF"/>
<path id="Vector_20" d="M70.2542 30.2399L67.0342 25.2099V30.2399H65.6542V23.1499H67.3742L70.3242 27.8399V23.1499H71.7042V30.2399H70.2542Z" fill="#6260FF"/>
<path id="Vector_21" d="M61.4654 27.5099H60.7454V30.2399H59.3554V23.1499H62.1254C63.5054 23.1499 64.3854 24.0999 64.3854 25.3299C64.3854 26.3299 63.8054 27.0699 62.8754 27.3399L64.3954 30.2399H62.8554L61.4654 27.5099ZM61.8654 26.3199C62.5754 26.3199 62.9754 25.9299 62.9754 25.3399C62.9754 24.7399 62.5754 24.3499 61.8654 24.3499H60.7454V26.3199H61.8654Z" fill="#6260FF"/>
<path id="Vector_22" d="M56.3384 28.6199H53.4584L52.8684 30.2399H51.4084L54.1284 23.1499H55.7284L58.4284 30.2399H56.9284L56.3384 28.6199ZM53.9184 27.3599H55.8784L54.8984 24.6799L53.9184 27.3599Z" fill="#6260FF"/>
<path id="Vector_23" d="M46.3574 30.2399V23.1499H50.7974V24.4499H47.7374V26.0699H50.5074V27.2999H47.7374V28.9399H50.7974V30.2399H46.3574Z" fill="#6260FF"/>
<path id="Vector_24" d="M40.83 30.2399V23.1499H42.21V28.9199H45.37V30.2399H40.83Z" fill="#6260FF"/>
</g>
</g>
</svg>
