<svg width="1023" height="286" viewBox="0 0 1023 286" fill="none" xmlns="http://www.w3.org/2000/svg">
<path d="M277.787 69.2044L216.362 7.75884C211.582 2.97861 205.119 0.311523 198.369 0.311523H86.9057C80.1559 0.311523 73.6728 2.99912 68.9131 7.75884L7.44707 69.2044C2.66684 73.9846 -0.000244141 80.4471 -0.000244141 87.1969V198.66C-0.000244141 205.41 2.68736 211.893 7.44707 216.653L67.9488 277.155C73.324 282.53 80.6072 285.546 88.1982 285.546H197.036C204.627 285.546 211.91 282.53 217.285 277.155L277.787 216.653C282.567 211.873 285.234 205.41 285.234 198.66V87.1969C285.234 80.4471 282.546 73.9641 277.787 69.2044ZM225.307 216.92L216.608 225.619C175.822 184.833 109.432 184.833 68.6464 225.619L59.9476 216.92C100.733 176.113 100.733 109.744 59.9476 68.9582L68.6464 60.2594C109.432 101.045 175.822 101.045 216.608 60.2594L225.307 68.9582C184.521 109.765 184.521 176.134 225.307 216.92Z" fill="#6260FF"/>
<path d="M1006.34 232.06L1022.05 255.939H1010.79L1000.47 239.413L990.079 255.939H979.152L994.869 231.993L979.219 208.114H990.417L1000.67 224.64L1011.13 208.114H1021.99L1006.34 232.06Z" fill="#6260FF"/>
<path d="M963.661 255.939V208.114H973.105V255.939H963.661Z" fill="#6260FF"/>
<path d="M931.114 247.305C938.938 247.305 945.482 242.516 945.482 232.06C945.482 221.673 939.006 216.748 931.181 216.748H923.694V247.305H931.114ZM914.385 255.939V208.114H931.519C945.144 208.114 955.127 216.951 955.127 232.06C955.127 247.17 945.077 255.939 931.451 255.939H914.385Z" fill="#6260FF"/>
<path d="M894.038 245.012H874.611L870.631 255.939H860.783L879.13 208.114H889.923L908.135 255.939H898.017L894.038 245.012ZM877.714 236.512H890.935L884.324 218.435L877.714 236.512Z" fill="#6260FF"/>
<path d="M838.244 237.524H833.387V255.939H824.011V208.114H842.695C852.004 208.114 857.94 214.522 857.94 222.819C857.94 229.565 854.028 234.556 847.755 236.377L858.008 255.939H847.62L838.244 237.524ZM840.942 229.497C845.731 229.497 848.429 226.866 848.429 222.887C848.429 218.839 845.731 216.209 840.942 216.209H833.387V229.497H840.942Z" fill="#6260FF"/>
<path d="M788.051 216.951V255.939H778.675V216.951H763.565V208.114H803.16V216.951H788.051Z" fill="#6260FF"/>
<path d="M738.863 257.018C728.678 257.018 720.516 250.745 720.516 239.008V208.114H729.824V238.334C729.824 244.607 733.264 247.912 738.863 247.912C744.529 247.912 747.969 244.607 747.969 238.334V208.114H757.278V239.008C757.278 250.745 749.116 257.018 738.863 257.018Z" fill="#6260FF"/>
<path d="M673.059 231.995C673.059 242.788 680.613 247.914 687.966 247.914C695.386 247.914 702.941 242.788 702.941 231.995C702.941 221.202 695.386 216.076 687.966 216.076C680.613 216.076 673.059 221.202 673.059 231.995ZM663.413 232.062C663.413 216.616 675.015 207.104 687.966 207.104C700.984 207.104 712.587 216.616 712.587 232.062C712.587 247.442 700.984 256.953 687.966 256.953C675.015 256.953 663.413 247.442 663.413 232.062Z" fill="#6260FF"/>
<path d="M641.617 208.114C650.925 208.114 656.187 213.645 656.187 220.998C656.187 225.922 653.286 229.902 649.239 231.251C653.826 232.33 657.671 236.715 657.671 242.583C657.671 250.34 651.87 255.939 642.898 255.939H624.416V208.114H641.617ZM640.2 227.878C644.517 227.878 647.013 225.585 647.013 221.875C647.013 218.165 644.72 215.939 640.133 215.939H633.59V227.878H640.2ZM641.145 248.182C645.731 248.182 648.362 245.821 648.362 241.976C648.362 238.199 645.934 235.568 641.28 235.568H633.59V248.182H641.145Z" fill="#6260FF"/>
<path d="M604.064 245.012H584.638L580.658 255.939H570.81L589.157 208.114H599.95L618.162 255.939H608.044L604.064 245.012ZM587.741 236.512H600.962L594.351 218.435L587.741 236.512Z" fill="#6260FF"/>
<path d="M540.759 255.939L519.039 222.01V255.939H509.73V208.114H521.333L541.231 239.75V208.114H550.54V255.939H540.759Z" fill="#6260FF"/>
<path d="M481.474 237.524H476.617V255.939H467.241V208.114H485.926C495.235 208.114 501.171 214.522 501.171 222.819C501.171 229.565 497.258 234.556 490.985 236.377L501.238 255.939H490.85L481.474 237.524ZM484.172 229.497C488.961 229.497 491.66 226.866 491.66 222.887C491.66 218.839 488.961 216.209 484.172 216.209H476.617V229.497H484.172Z" fill="#6260FF"/>
<path d="M446.893 245.012H427.466L423.486 255.939H413.638L431.985 208.114H442.778L460.99 255.939H450.872L446.893 245.012ZM430.569 236.512H443.79L437.179 218.435L430.569 236.512Z" fill="#6260FF"/>
<path d="M379.564 255.939V208.114H409.514V216.883H388.873V227.811H407.558V236.108H388.873V247.17H409.514V255.939H379.564Z" fill="#6260FF"/>
<path d="M342.281 255.939V208.114H351.589V247.035H372.905V255.939H342.281Z" fill="#6260FF"/>
<path d="M342.292 151.024V38.2285H389.671C396.653 38.2285 402.808 39.437 408.123 41.8541C413.438 44.2711 417.579 47.7401 420.533 52.2497C423.487 56.7593 424.964 62.1304 424.964 68.3632V70.1314C424.964 77.2259 423.274 82.888 419.884 87.129C416.504 91.37 412.386 94.3577 407.552 96.0698V98.6436C411.637 98.8562 414.904 100.232 417.377 102.75C419.85 105.279 421.081 108.905 421.081 113.627V151.013H403.513V116.044C403.513 113.146 402.763 110.83 401.252 109.118C399.742 107.406 397.325 106.544 394.001 106.544H359.681V151.013H342.281L342.292 151.024ZM359.692 90.7546H387.735C393.968 90.7546 398.802 89.1656 402.237 85.9988C405.672 82.832 407.396 78.5016 407.396 73.0297V71.7427C407.396 66.2595 405.706 61.9404 402.315 58.7736C398.936 55.6068 394.068 54.0178 387.735 54.0178H359.692V90.7546Z" fill="#6260FF"/>
<path d="M462.818 153.283C457.122 153.283 452.042 152.32 447.588 150.384C443.135 148.449 439.588 145.606 436.958 141.847C434.328 138.087 433.008 133.521 433.008 128.15C433.008 122.779 434.317 118.135 436.958 114.531C439.588 110.939 443.191 108.22 447.756 106.396C452.322 104.572 457.503 103.655 463.31 103.655H487.481V98.4963C487.481 93.8748 486.082 90.1707 483.296 87.3732C480.498 84.5757 476.201 83.1881 470.405 83.1881C464.609 83.1881 460.356 84.531 457.357 87.2166C454.347 89.9023 452.367 93.3937 451.393 97.6907L435.928 92.6997C437.215 88.4027 439.285 84.5086 442.128 81.0173C444.97 77.526 448.763 74.7061 453.486 72.5576C458.208 70.4091 463.904 69.335 470.562 69.335C480.879 69.335 488.981 71.9647 494.889 77.2352C500.797 82.5057 503.751 89.9695 503.751 99.6377V132.346C503.751 135.569 505.251 137.18 508.261 137.18H515.031V151.034H502.621C498.861 151.034 495.795 150.071 493.434 148.135C491.073 146.199 489.887 143.57 489.887 140.235V139.754H487.47C486.608 141.365 485.321 143.245 483.598 145.394C481.875 147.542 479.357 149.4 476.022 150.955C472.688 152.511 468.29 153.294 462.807 153.294L462.818 153.283ZM465.235 139.586C471.893 139.586 477.264 137.684 481.349 133.868C485.433 130.052 487.47 124.815 487.47 118.157V116.546H464.262C459.853 116.546 456.305 117.486 453.631 119.366C450.945 121.246 449.603 124.009 449.603 127.669C449.603 131.328 451.001 134.226 453.788 136.374C456.585 138.523 460.39 139.597 465.224 139.597L465.235 139.586Z" fill="#6260FF"/>
<path d="M555.315 153.282C548.758 153.282 542.693 151.671 537.109 148.448C531.525 145.225 527.038 140.582 523.658 134.505C520.279 128.44 518.578 121.111 518.578 112.506V110.089C518.578 101.606 520.245 94.2996 523.569 88.1786C526.892 82.0576 531.357 77.3802 536.941 74.1574C542.525 70.9347 548.646 69.3232 555.315 69.3232C560.474 69.3232 564.793 69.9722 568.284 71.2591C571.776 72.546 574.651 74.1908 576.901 76.1714C579.161 78.1632 580.873 80.2223 582.059 82.3708H584.633V38.2148H601.228V151.011H584.957V139.731H582.384C580.336 143.166 577.248 146.288 573.118 149.075C568.978 151.872 563.047 153.26 555.315 153.26V153.282ZM559.993 138.78C567.188 138.78 573.13 136.475 577.796 131.853C582.473 127.232 584.801 120.63 584.801 112.036V110.581C584.801 102.099 582.485 95.5416 577.874 90.9201C573.253 86.2986 567.288 83.9933 559.993 83.9933C552.697 83.9933 547.023 86.3098 542.346 90.9201C537.668 95.5416 535.341 102.099 535.341 110.581V112.036C535.341 120.63 537.68 127.232 542.346 131.853C547.023 136.475 552.898 138.78 559.993 138.78Z" fill="#6260FF"/>
<path d="M659.562 153.281C645.709 153.281 634.687 149.387 626.529 141.599C618.36 133.811 614.287 122.565 614.287 107.839V81.4078C614.287 66.6929 618.371 55.4355 626.529 47.6472C634.687 39.8589 645.709 35.9648 659.562 35.9648C673.415 35.9648 684.46 39.8589 692.673 47.6472C700.887 55.4355 705.005 66.6929 705.005 81.4078V107.839C705.005 122.553 700.898 133.811 692.673 141.599C684.46 149.387 673.415 153.281 659.562 153.281ZM659.562 137.649C668.48 137.649 675.351 135.042 680.185 129.838C685.019 124.624 687.436 117.507 687.436 108.488V80.7699C687.436 71.7507 685.019 64.6337 680.185 59.4192C675.351 54.2046 668.48 51.6085 659.562 51.6085C650.644 51.6085 644.041 54.2158 639.095 59.4192C634.149 64.6337 631.688 71.7507 631.688 80.7699V108.488C631.688 117.507 634.161 124.624 639.095 129.838C644.041 135.053 650.856 137.649 659.562 137.649ZM666.489 178.582C661.867 178.582 658.13 177.161 655.287 174.308C652.445 171.465 651.013 167.616 651.013 162.782V151.021H668.089V159.883C668.089 163.106 669.588 164.718 672.598 164.718H682.591V178.571H666.478L666.489 178.582Z" fill="#6260FF"/>
<path d="M747.864 152.474C741.843 152.474 736.472 151.131 731.75 148.445C727.017 145.759 723.313 141.944 720.627 137.009C717.941 132.074 716.599 126.154 716.599 119.284V71.5918H733.194V118.165C733.194 125.035 734.917 130.116 738.352 133.394C741.788 136.673 746.566 138.307 752.698 138.307C759.468 138.307 764.917 136.024 769.058 131.459C773.187 126.893 775.257 120.313 775.257 111.719V71.5918H791.852V151.03H775.582V139.101H773.008C771.497 142.324 768.823 145.357 764.951 148.21C761.079 151.052 755.395 152.485 747.875 152.485L747.864 152.474Z" fill="#6260FF"/>
<path d="M840.841 153.278C832.784 153.278 825.745 151.588 819.736 148.197C813.716 144.818 809.016 140.04 805.637 133.852C802.258 127.675 800.557 120.502 800.557 112.345V110.409C800.557 102.139 802.224 94.9106 805.547 88.7337C808.871 82.5568 813.526 77.7785 819.49 74.3879C825.455 71.0085 832.359 69.3076 840.192 69.3076C848.025 69.3076 854.504 70.9974 860.256 74.3879C865.996 77.7673 870.483 82.467 873.706 88.4872C876.929 94.5075 878.54 101.535 878.54 109.592V115.88H817.465C817.677 122.863 820.016 128.425 824.47 132.554C828.923 136.694 834.485 138.753 841.143 138.753C847.376 138.753 852.076 137.354 855.242 134.568C858.409 131.771 860.86 128.548 862.572 124.9L876.269 131.994C874.758 135.004 872.587 138.171 869.745 141.506C866.902 144.84 863.165 147.627 858.543 149.887C853.922 152.148 848.014 153.267 840.818 153.267L840.841 153.278ZM817.633 103.169H861.621C861.195 97.1485 859.047 92.4485 855.175 89.0692C851.304 85.6898 846.257 83.9888 840.024 83.9888C833.791 83.9888 828.722 85.6786 824.794 89.0692C820.867 92.4485 818.483 97.1485 817.621 103.169H817.633Z" fill="#6260FF"/>
<path d="M921.085 153.283C910.981 153.283 902.61 151.022 895.952 146.513C889.294 142.003 885.21 135.177 883.71 126.046L899.175 122.342C900.037 126.751 901.48 130.242 903.528 132.816C905.565 135.39 908.116 137.225 911.182 138.299C914.248 139.373 917.549 139.911 921.096 139.911C926.356 139.911 930.418 138.892 933.26 136.845C936.102 134.808 937.535 132.167 937.535 128.944C937.535 125.722 936.192 123.36 933.506 121.85C930.821 120.35 926.848 119.108 921.578 118.146L916.094 117.184C910.723 116.221 905.833 114.823 901.435 112.999C897.027 111.175 893.535 108.646 890.962 105.423C888.388 102.2 887.09 98.0709 887.09 93.013C887.09 85.4933 889.887 79.6634 895.471 75.5343C901.055 71.4052 908.474 69.335 917.706 69.335C926.938 69.335 933.954 71.3491 939.705 75.3775C945.446 79.4059 949.183 84.8556 950.907 91.7375L935.442 96.0903C934.48 91.2562 932.432 87.8433 929.321 85.8627C926.199 83.8709 922.338 82.886 917.717 82.886C913.095 82.886 909.66 83.7255 907.086 85.3816C904.513 87.0489 903.215 89.3874 903.215 92.3863C903.215 95.609 904.479 97.9702 906.997 99.4809C909.515 100.992 912.928 102.111 917.225 102.86L922.864 103.823C928.56 104.785 933.764 106.139 938.497 107.851C943.219 109.574 946.957 112.036 949.698 115.259C952.44 118.482 953.805 122.779 953.805 128.15C953.805 136.106 950.851 142.272 944.942 146.68C939.034 151.078 931.089 153.283 921.096 153.283H921.085Z" fill="#6260FF"/>
<path d="M993.764 151.023C988.93 151.023 985.092 149.568 982.238 146.67C979.396 143.772 977.964 139.9 977.964 135.066V85.5947H956.054V71.5736H977.964V45.3105H994.559V71.5736H1018.25V85.5947H994.559V132.168C994.559 135.39 996.058 137.002 999.068 137.002H1015.66V151.023H993.753H993.764Z" fill="#6260FF"/>
</svg>
