<svg width="32" height="32" viewBox="0 0 32 32" fill="none" xmlns="http://www.w3.org/2000/svg">
<path id="Logo Vector" d="M31.1645 7.72898L24.2733 0.835503C23.737 0.299216 23.012 0 22.2548 0H9.74984C8.99259 0 8.26527 0.301518 7.73128 0.835503L0.835503 7.72898C0.299216 8.26527 0 8.99029 0 9.74754V22.2525C0 23.0097 0.301518 23.737 0.835503 24.271L7.6231 31.0586C8.22614 31.6617 9.04323 32 9.89484 32H22.1052C22.9568 32 23.7739 31.6617 24.3769 31.0586L31.1645 24.271C31.7008 23.7347 32 23.0097 32 22.2525V9.74754C32 8.99029 31.6985 8.26297 31.1645 7.72898ZM25.2768 24.3009L24.3009 25.2768C19.7252 20.7011 12.2771 20.7011 7.70136 25.2768L6.72545 24.3009C11.3012 19.7229 11.3012 12.2771 6.72545 7.70136L7.70136 6.72545C12.2771 11.3012 19.7252 11.3012 24.3009 6.72545L25.2768 7.70136C20.7011 12.2794 20.7011 19.7252 25.2768 24.3009Z" fill="#6260FF"/>
</svg>
