<svg xmlns="http://www.w3.org/2000/svg" width="26" height="26" viewBox="0 0 26 26" fill="none">
  <circle cx="13" cy="13" r="13" fill="#6260FF"/>
  <path d="M18.0361 9.00043C17.7925 9.00868 17.5617 9.11316 17.3927 9.29167C15.6194 11.0977 13.5206 12.9318 11.6199 14.8075L8.50835 12.4359C8.41021 12.3588 8.29796 12.3023 8.17812 12.2697C8.05829 12.237 7.93328 12.2289 7.81034 12.2459C7.6874 12.2628 7.569 12.3044 7.46202 12.3682C7.35504 12.432 7.26162 12.5168 7.18718 12.6177C7.11275 12.7186 7.05879 12.8335 7.02844 12.9557C6.99809 13.0779 6.99196 13.2051 7.0104 13.3298C7.02884 13.4544 7.07149 13.5741 7.13586 13.6819C7.20024 13.7897 7.28506 13.8834 7.38538 13.9575L11.1286 16.8105C11.3089 16.9475 11.5317 17.0139 11.7562 16.9976C11.9807 16.9812 12.1919 16.8831 12.351 16.7214C14.3047 14.7317 16.6754 12.7117 18.7145 10.635C18.8503 10.5016 18.9432 10.3296 18.981 10.1416C19.0189 9.95353 18.9998 9.75828 18.9264 9.58145C18.853 9.40463 18.7287 9.2545 18.5698 9.1508C18.4109 9.0471 18.2248 8.99468 18.0361 9.00043Z" fill="#FFFBF4"/>
</svg>