<svg width="17" height="20" viewBox="0 0 17 20" fill="none" xmlns="http://www.w3.org/2000/svg">
<path d="M14 13.7399C13.3033 13.7399 12.68 14.0149 12.2033 14.4458L5.6675 10.6416C5.71333 10.4308 5.75 10.2199 5.75 9.99992C5.75 9.77992 5.71333 9.56909 5.6675 9.35825L12.13 5.59075C12.625 6.04909 13.2758 6.33325 14 6.33325C15.5217 6.33325 16.75 5.10492 16.75 3.58325C16.75 2.06159 15.5217 0.833252 14 0.833252C12.4783 0.833252 11.25 2.06159 11.25 3.58325C11.25 3.80325 11.2867 4.01409 11.3325 4.22492L4.87 7.99242C4.375 7.53409 3.72417 7.24992 3 7.24992C1.47833 7.24992 0.25 8.47825 0.25 9.99992C0.25 11.5216 1.47833 12.7499 3 12.7499C3.72417 12.7499 4.375 12.4658 4.87 12.0074L11.3967 15.8208C11.3508 16.0133 11.3233 16.2149 11.3233 16.4166C11.3233 17.8924 12.5242 19.0933 14 19.0933C15.4758 19.0933 16.6767 17.8924 16.6767 16.4166C16.6767 14.9408 15.4758 13.7399 14 13.7399Z" fill="white"/>
</svg>
