<svg xmlns="http://www.w3.org/2000/svg" width="12" height="8" viewBox="0 0 12 8" fill="none">
<path d="M11.0361 0.000426683C10.7925 0.00867666 10.5617 0.113165 10.3927 0.291671C8.6194 2.09768 6.52061 3.93178 4.61992 5.80748L1.50835 3.43593C1.41021 3.35881 1.29796 3.3023 1.17812 3.26967C1.05829 3.23705 0.933275 3.22895 0.810339 3.24586C0.687403 3.26278 0.569002 3.30436 0.462023 3.3682C0.355043 3.43203 0.261619 3.51684 0.187184 3.6177C0.112748 3.71855 0.0587875 3.83345 0.0284381 3.95569C-0.00191123 4.07793 -0.008043 4.20508 0.0103994 4.32975C0.0288418 4.45443 0.0714899 4.57413 0.135864 4.6819C0.200239 4.78967 0.285055 4.88336 0.38538 4.95752L4.12862 7.81053C4.30887 7.94753 4.53167 8.01393 4.75618 7.99756C4.98069 7.98119 5.19187 7.88313 5.35102 7.72137C7.30469 5.73172 9.67542 3.71168 11.7145 1.63496C11.8503 1.50159 11.9432 1.32959 11.981 1.14156C12.0189 0.953534 11.9998 0.75828 11.9264 0.581453C11.853 0.404627 11.7287 0.254495 11.5698 0.150797C11.4109 0.0470987 11.2248 -0.00532018 11.0361 0.000426683Z" fill="#FFFBF4"/>
</svg>