<svg xmlns="http://www.w3.org/2000/svg" width="12" height="14" viewBox="0 0 12 14" fill="none">

<path d="M3.75 13.0007C3.75 13.3673 4.0875 13.6673 4.5 13.6673H7.5C7.9125 13.6673 8.25 13.3673 8.25 13.0007V12.334H3.75V13.0007ZM6 0.333984C3.105 0.333984 0.75 2.42732 0.75 5.00065C0.75 6.58732 1.6425 7.98065 3 8.82732V10.334C3 10.7007 3.3375 11.0007 3.75 11.0007H8.25C8.6625 11.0007 9 10.7007 9 10.334V8.82732C10.3575 7.98065 11.25 6.58732 11.25 5.00065C11.25 2.42732 8.895 0.333984 6 0.333984ZM7.5 8.13398V9.66732H4.5V8.13398C3.36 7.42065 2.25 6.68732 2.25 5.00065C2.25 3.16065 3.93 1.66732 6 1.66732C8.07 1.66732 9.75 3.16065 9.75 5.00065C9.75 6.66065 8.6175 7.43398 7.5 8.13398Z" fill="white"/>

</svg>